<svg xmlns="http://www.w3.org/2000/svg" version="1.1" xmlns:xlink="http://www.w3.org/1999/xlink" xmlns:svgjs="http://svgjs.dev/svgjs" width="1080" height="1920" preserveAspectRatio="none" viewBox="0 0 1080 1920"><g mask="url(&quot;#SvgjsMask1057&quot;)" fill="none"><rect width="1080" height="1920" x="0" y="0" fill="rgba(201, 221, 217, 1)"></rect><path d="M0,530.746C109.346,529.429,227.033,555.524,319.688,497.444C412.601,439.202,453.244,327.073,489.83,223.698C523.947,127.3,512.525,26.689,522.321,-75.098C535.68,-213.9,632.768,-365.78,557.884,-483.409C484.894,-598.063,310.542,-575.187,179.959,-612.885C50.078,-650.38,-73.082,-724.294,-206.758,-704.152C-348.83,-682.745,-487.077,-611.948,-575.877,-499C-663.119,-388.034,-675.937,-239.191,-683.143,-98.221C-689.837,32.719,-682.723,168.487,-615.761,281.209C-551.939,388.645,-440.491,458.273,-324.677,505.207C-221.985,546.823,-110.796,532.081,0,530.746" fill="#a7c8c1"></path><path d="M1080 2507.444C1196.048 2496.429 1319.585 2508.39 1416.68 2443.884 1513.23 2379.74 1571.84 2270.67 1604.016 2159.31 1633.563 2057.046 1587.138 1953.215 1589.2 1846.788 1591.795 1712.859 1696.252 1562.588 1617.682 1454.096 1540.789 1347.92 1370.613 1393.967 1242.191 1367.6280000000002 1126.353 1343.87 1013.769 1274.7350000000001 899.977 1306.896 785.887 1339.141 718.569 1449.972 639.2049999999999 1538.049 558.207 1627.939 458.548 1708.818 431.533 1826.764 403.62800000000004 1948.594 444.47 2073.046 490.004 2189.442 537.677 2311.306 584.386 2449.865 699.576 2511.951 813.518 2573.365 951.14 2519.675 1080 2507.444" fill="#ebf2f1"></path></g><defs><mask id="SvgjsMask1057"><rect width="1080" height="1920" fill="#ffffff"></rect></mask></defs></svg>